<mxfile host="app.diagrams.net" modified="2020-06-29T14:56:49.777Z" agent="5.0 (Windows NT 10.0; Win64; x64) AppleWebKit/537.36 (KHTML, like Gecko) Chrome/83.0.4103.106 Safari/537.36" etag="VWihlD9orHK4jdCChkZa" version="13.3.0" type="github">
  <diagram id="PWlNCycawpXv-19B4sHe" name="Page-1">
    <mxGraphModel dx="1422" dy="794" grid="1" gridSize="10" guides="1" tooltips="1" connect="1" arrows="1" fold="1" page="1" pageScale="1" pageWidth="1169" pageHeight="827" math="0" shadow="0">
      <root>
        <mxCell id="0" />
        <mxCell id="1" parent="0" />
        <mxCell id="7OhoZfPL1DW1Y8G--P-i-34" value="" style="rounded=0;whiteSpace=wrap;html=1;" vertex="1" parent="1">
          <mxGeometry x="160" y="680" width="120" height="80" as="geometry" />
        </mxCell>
        <mxCell id="7OhoZfPL1DW1Y8G--P-i-39" value="" style="rounded=0;whiteSpace=wrap;html=1;" vertex="1" parent="1">
          <mxGeometry x="80" y="700" width="80" height="60" as="geometry" />
        </mxCell>
        <mxCell id="7OhoZfPL1DW1Y8G--P-i-38" value="" style="rounded=0;whiteSpace=wrap;html=1;" vertex="1" parent="1">
          <mxGeometry x="40" y="680" width="120" height="60" as="geometry" />
        </mxCell>
        <mxCell id="7OhoZfPL1DW1Y8G--P-i-36" value="" style="rounded=1;whiteSpace=wrap;html=1;gradientColor=none;" vertex="1" parent="1">
          <mxGeometry x="40" y="700" width="120" height="60" as="geometry" />
        </mxCell>
        <mxCell id="7OhoZfPL1DW1Y8G--P-i-2" value="" style="rounded=0;whiteSpace=wrap;html=1;" vertex="1" parent="1">
          <mxGeometry x="400" y="80" width="160" height="480" as="geometry" />
        </mxCell>
        <mxCell id="7OhoZfPL1DW1Y8G--P-i-3" value="" style="rounded=0;whiteSpace=wrap;html=1;" vertex="1" parent="1">
          <mxGeometry x="560" y="80" width="160" height="480" as="geometry" />
        </mxCell>
        <mxCell id="7OhoZfPL1DW1Y8G--P-i-4" value="" style="rounded=0;whiteSpace=wrap;html=1;" vertex="1" parent="1">
          <mxGeometry x="720" y="440" width="160" height="120" as="geometry" />
        </mxCell>
        <mxCell id="7OhoZfPL1DW1Y8G--P-i-5" value="" style="rounded=0;whiteSpace=wrap;html=1;" vertex="1" parent="1">
          <mxGeometry x="720" y="80" width="160" height="120" as="geometry" />
        </mxCell>
        <mxCell id="7OhoZfPL1DW1Y8G--P-i-6" value="" style="rounded=0;whiteSpace=wrap;html=1;" vertex="1" parent="1">
          <mxGeometry x="720" y="200" width="160" height="120" as="geometry" />
        </mxCell>
        <mxCell id="7OhoZfPL1DW1Y8G--P-i-7" value="" style="rounded=0;whiteSpace=wrap;html=1;" vertex="1" parent="1">
          <mxGeometry x="720" y="320" width="160" height="120" as="geometry" />
        </mxCell>
        <mxCell id="7OhoZfPL1DW1Y8G--P-i-8" value="" style="rounded=0;whiteSpace=wrap;html=1;" vertex="1" parent="1">
          <mxGeometry x="720" y="440" width="160" height="120" as="geometry" />
        </mxCell>
        <mxCell id="7OhoZfPL1DW1Y8G--P-i-9" value="" style="rounded=0;whiteSpace=wrap;html=1;" vertex="1" parent="1">
          <mxGeometry x="720" y="320" width="160" height="120" as="geometry" />
        </mxCell>
        <mxCell id="7OhoZfPL1DW1Y8G--P-i-10" value="" style="rounded=0;whiteSpace=wrap;html=1;" vertex="1" parent="1">
          <mxGeometry x="720" y="200" width="160" height="120" as="geometry" />
        </mxCell>
        <mxCell id="7OhoZfPL1DW1Y8G--P-i-11" value="" style="rounded=0;whiteSpace=wrap;html=1;" vertex="1" parent="1">
          <mxGeometry x="560" y="440" width="160" height="120" as="geometry" />
        </mxCell>
        <mxCell id="7OhoZfPL1DW1Y8G--P-i-12" value="" style="rounded=0;whiteSpace=wrap;html=1;" vertex="1" parent="1">
          <mxGeometry x="560" y="320" width="160" height="120" as="geometry" />
        </mxCell>
        <mxCell id="7OhoZfPL1DW1Y8G--P-i-13" value="" style="rounded=0;whiteSpace=wrap;html=1;" vertex="1" parent="1">
          <mxGeometry x="560" y="200" width="160" height="120" as="geometry" />
        </mxCell>
        <mxCell id="7OhoZfPL1DW1Y8G--P-i-14" value="" style="rounded=0;whiteSpace=wrap;html=1;" vertex="1" parent="1">
          <mxGeometry x="400" y="440" width="160" height="120" as="geometry" />
        </mxCell>
        <mxCell id="7OhoZfPL1DW1Y8G--P-i-15" value="" style="rounded=0;whiteSpace=wrap;html=1;" vertex="1" parent="1">
          <mxGeometry x="400" y="320" width="160" height="120" as="geometry" />
        </mxCell>
        <mxCell id="7OhoZfPL1DW1Y8G--P-i-16" value="" style="rounded=0;whiteSpace=wrap;html=1;" vertex="1" parent="1">
          <mxGeometry x="400" y="200" width="160" height="120" as="geometry" />
        </mxCell>
        <mxCell id="7OhoZfPL1DW1Y8G--P-i-17" value="" style="rounded=0;whiteSpace=wrap;html=1;" vertex="1" parent="1">
          <mxGeometry x="40" y="80" width="120" height="120" as="geometry" />
        </mxCell>
        <mxCell id="7OhoZfPL1DW1Y8G--P-i-18" value="" style="rounded=0;whiteSpace=wrap;html=1;" vertex="1" parent="1">
          <mxGeometry x="160" y="80" width="120" height="120" as="geometry" />
        </mxCell>
        <mxCell id="7OhoZfPL1DW1Y8G--P-i-19" value="" style="rounded=0;whiteSpace=wrap;html=1;" vertex="1" parent="1">
          <mxGeometry x="280" y="80" width="120" height="120" as="geometry" />
        </mxCell>
        <mxCell id="7OhoZfPL1DW1Y8G--P-i-20" value="" style="endArrow=classic;startArrow=classic;html=1;" edge="1" parent="1">
          <mxGeometry width="50" height="50" relative="1" as="geometry">
            <mxPoint x="40" y="60" as="sourcePoint" />
            <mxPoint x="160" y="60" as="targetPoint" />
          </mxGeometry>
        </mxCell>
        <mxCell id="7OhoZfPL1DW1Y8G--P-i-21" value="" style="endArrow=classic;startArrow=classic;html=1;" edge="1" parent="1">
          <mxGeometry width="50" height="50" relative="1" as="geometry">
            <mxPoint x="160" y="60" as="sourcePoint" />
            <mxPoint x="280" y="60" as="targetPoint" />
          </mxGeometry>
        </mxCell>
        <mxCell id="7OhoZfPL1DW1Y8G--P-i-22" value="" style="endArrow=classic;startArrow=classic;html=1;" edge="1" parent="1">
          <mxGeometry width="50" height="50" relative="1" as="geometry">
            <mxPoint x="280" y="60" as="sourcePoint" />
            <mxPoint x="400" y="60" as="targetPoint" />
          </mxGeometry>
        </mxCell>
        <mxCell id="7OhoZfPL1DW1Y8G--P-i-23" value="" style="endArrow=classic;startArrow=classic;html=1;" edge="1" parent="1">
          <mxGeometry width="50" height="50" relative="1" as="geometry">
            <mxPoint x="400" y="60" as="sourcePoint" />
            <mxPoint x="560" y="60" as="targetPoint" />
          </mxGeometry>
        </mxCell>
        <mxCell id="7OhoZfPL1DW1Y8G--P-i-24" value="" style="endArrow=classic;startArrow=classic;html=1;" edge="1" parent="1">
          <mxGeometry width="50" height="50" relative="1" as="geometry">
            <mxPoint x="560" y="60" as="sourcePoint" />
            <mxPoint x="720" y="60" as="targetPoint" />
          </mxGeometry>
        </mxCell>
        <mxCell id="7OhoZfPL1DW1Y8G--P-i-25" value="" style="endArrow=classic;startArrow=classic;html=1;" edge="1" parent="1">
          <mxGeometry width="50" height="50" relative="1" as="geometry">
            <mxPoint x="720" y="60" as="sourcePoint" />
            <mxPoint x="880" y="60" as="targetPoint" />
          </mxGeometry>
        </mxCell>
        <mxCell id="7OhoZfPL1DW1Y8G--P-i-26" value="" style="endArrow=classic;startArrow=classic;html=1;" edge="1" parent="1">
          <mxGeometry width="50" height="50" relative="1" as="geometry">
            <mxPoint x="900" y="80" as="sourcePoint" />
            <mxPoint x="900" y="200" as="targetPoint" />
          </mxGeometry>
        </mxCell>
        <mxCell id="7OhoZfPL1DW1Y8G--P-i-27" value="" style="endArrow=classic;startArrow=classic;html=1;" edge="1" parent="1">
          <mxGeometry width="50" height="50" relative="1" as="geometry">
            <mxPoint x="900" y="200" as="sourcePoint" />
            <mxPoint x="900" y="320" as="targetPoint" />
          </mxGeometry>
        </mxCell>
        <mxCell id="7OhoZfPL1DW1Y8G--P-i-28" value="" style="endArrow=classic;startArrow=classic;html=1;" edge="1" parent="1">
          <mxGeometry width="50" height="50" relative="1" as="geometry">
            <mxPoint x="900" y="320" as="sourcePoint" />
            <mxPoint x="900" y="440" as="targetPoint" />
          </mxGeometry>
        </mxCell>
        <mxCell id="7OhoZfPL1DW1Y8G--P-i-29" value="" style="endArrow=classic;startArrow=classic;html=1;" edge="1" parent="1">
          <mxGeometry width="50" height="50" relative="1" as="geometry">
            <mxPoint x="900" y="440" as="sourcePoint" />
            <mxPoint x="900" y="560" as="targetPoint" />
          </mxGeometry>
        </mxCell>
        <mxCell id="7OhoZfPL1DW1Y8G--P-i-30" value="" style="rounded=0;whiteSpace=wrap;html=1;" vertex="1" parent="1">
          <mxGeometry x="720" y="680" width="160" height="80" as="geometry" />
        </mxCell>
        <mxCell id="7OhoZfPL1DW1Y8G--P-i-31" value="" style="rounded=0;whiteSpace=wrap;html=1;" vertex="1" parent="1">
          <mxGeometry x="560" y="680" width="160" height="80" as="geometry" />
        </mxCell>
        <mxCell id="7OhoZfPL1DW1Y8G--P-i-32" value="" style="rounded=0;whiteSpace=wrap;html=1;" vertex="1" parent="1">
          <mxGeometry x="400" y="680" width="160" height="80" as="geometry" />
        </mxCell>
        <mxCell id="7OhoZfPL1DW1Y8G--P-i-33" value="" style="rounded=0;whiteSpace=wrap;html=1;" vertex="1" parent="1">
          <mxGeometry x="280" y="680" width="120" height="80" as="geometry" />
        </mxCell>
        <mxCell id="7OhoZfPL1DW1Y8G--P-i-35" value="" style="rounded=0;whiteSpace=wrap;html=1;strokeColor=none;" vertex="1" parent="1">
          <mxGeometry x="40" y="690" width="110" height="30" as="geometry" />
        </mxCell>
        <mxCell id="7OhoZfPL1DW1Y8G--P-i-37" value="" style="rounded=0;whiteSpace=wrap;html=1;strokeColor=none;" vertex="1" parent="1">
          <mxGeometry x="100" y="680" width="670" height="80" as="geometry" />
        </mxCell>
        <mxCell id="7OhoZfPL1DW1Y8G--P-i-40" value="正視圖" style="text;html=1;strokeColor=none;fillColor=none;align=center;verticalAlign=middle;whiteSpace=wrap;rounded=0;fontSize=24;" vertex="1" parent="1">
          <mxGeometry x="440" y="570" width="80" height="20" as="geometry" />
        </mxCell>
        <mxCell id="7OhoZfPL1DW1Y8G--P-i-41" value="俯視圖" style="text;html=1;strokeColor=none;fillColor=none;align=center;verticalAlign=middle;whiteSpace=wrap;rounded=0;fontSize=24;" vertex="1" parent="1">
          <mxGeometry x="440" y="770" width="80" height="20" as="geometry" />
        </mxCell>
        <mxCell id="7OhoZfPL1DW1Y8G--P-i-42" value="" style="endArrow=classic;startArrow=classic;html=1;" edge="1" parent="1">
          <mxGeometry width="50" height="50" relative="1" as="geometry">
            <mxPoint x="40" y="660" as="sourcePoint" />
            <mxPoint x="879" y="660" as="targetPoint" />
          </mxGeometry>
        </mxCell>
        <mxCell id="7OhoZfPL1DW1Y8G--P-i-43" value="" style="endArrow=classic;startArrow=classic;html=1;" edge="1" parent="1">
          <mxGeometry width="50" height="50" relative="1" as="geometry">
            <mxPoint x="900" y="680" as="sourcePoint" />
            <mxPoint x="900" y="760" as="targetPoint" />
          </mxGeometry>
        </mxCell>
        <mxCell id="7OhoZfPL1DW1Y8G--P-i-44" value="60cm" style="text;html=1;strokeColor=none;fillColor=none;align=left;verticalAlign=middle;whiteSpace=wrap;rounded=0;fontSize=24;" vertex="1" parent="1">
          <mxGeometry x="920" y="130" width="40" height="20" as="geometry" />
        </mxCell>
        <mxCell id="7OhoZfPL1DW1Y8G--P-i-45" value="60cm" style="text;html=1;strokeColor=none;fillColor=none;align=left;verticalAlign=middle;whiteSpace=wrap;rounded=0;fontSize=24;" vertex="1" parent="1">
          <mxGeometry x="920" y="250" width="40" height="20" as="geometry" />
        </mxCell>
        <mxCell id="7OhoZfPL1DW1Y8G--P-i-46" value="60cm" style="text;html=1;strokeColor=none;fillColor=none;align=left;verticalAlign=middle;whiteSpace=wrap;rounded=0;fontSize=24;" vertex="1" parent="1">
          <mxGeometry x="920" y="370" width="40" height="20" as="geometry" />
        </mxCell>
        <mxCell id="7OhoZfPL1DW1Y8G--P-i-47" value="60cm" style="text;html=1;strokeColor=none;fillColor=none;align=left;verticalAlign=middle;whiteSpace=wrap;rounded=0;fontSize=24;" vertex="1" parent="1">
          <mxGeometry x="920" y="490" width="40" height="20" as="geometry" />
        </mxCell>
        <mxCell id="7OhoZfPL1DW1Y8G--P-i-48" value="80cm" style="text;html=1;strokeColor=none;fillColor=none;align=center;verticalAlign=middle;whiteSpace=wrap;rounded=0;fontSize=24;" vertex="1" parent="1">
          <mxGeometry x="780" y="30" width="40" height="20" as="geometry" />
        </mxCell>
        <mxCell id="7OhoZfPL1DW1Y8G--P-i-49" value="80cm" style="text;html=1;strokeColor=none;fillColor=none;align=center;verticalAlign=middle;whiteSpace=wrap;rounded=0;fontSize=24;" vertex="1" parent="1">
          <mxGeometry x="630" y="30" width="40" height="20" as="geometry" />
        </mxCell>
        <mxCell id="7OhoZfPL1DW1Y8G--P-i-50" value="80cm" style="text;html=1;strokeColor=none;fillColor=none;align=center;verticalAlign=middle;whiteSpace=wrap;rounded=0;fontSize=24;" vertex="1" parent="1">
          <mxGeometry x="460" y="30" width="40" height="20" as="geometry" />
        </mxCell>
        <mxCell id="7OhoZfPL1DW1Y8G--P-i-51" value="60cm" style="text;html=1;strokeColor=none;fillColor=none;align=center;verticalAlign=middle;whiteSpace=wrap;rounded=0;fontSize=24;" vertex="1" parent="1">
          <mxGeometry x="330" y="30" width="40" height="20" as="geometry" />
        </mxCell>
        <mxCell id="7OhoZfPL1DW1Y8G--P-i-52" value="60cm" style="text;html=1;strokeColor=none;fillColor=none;align=center;verticalAlign=middle;whiteSpace=wrap;rounded=0;fontSize=24;" vertex="1" parent="1">
          <mxGeometry x="200" y="30" width="40" height="20" as="geometry" />
        </mxCell>
        <mxCell id="7OhoZfPL1DW1Y8G--P-i-53" value="60cm" style="text;html=1;strokeColor=none;fillColor=none;align=center;verticalAlign=middle;whiteSpace=wrap;rounded=0;fontSize=24;" vertex="1" parent="1">
          <mxGeometry x="90" y="30" width="40" height="20" as="geometry" />
        </mxCell>
        <mxCell id="7OhoZfPL1DW1Y8G--P-i-54" value="420cm" style="text;html=1;strokeColor=none;fillColor=none;align=center;verticalAlign=middle;whiteSpace=wrap;rounded=0;fontSize=24;" vertex="1" parent="1">
          <mxGeometry x="460" y="630" width="40" height="20" as="geometry" />
        </mxCell>
        <mxCell id="7OhoZfPL1DW1Y8G--P-i-55" value="40cm" style="text;html=1;strokeColor=none;fillColor=none;align=left;verticalAlign=middle;whiteSpace=wrap;rounded=0;fontSize=24;" vertex="1" parent="1">
          <mxGeometry x="920" y="710" width="40" height="20" as="geometry" />
        </mxCell>
        <mxCell id="7OhoZfPL1DW1Y8G--P-i-57" value="" style="rounded=0;whiteSpace=wrap;html=1;gradientColor=none;fontSize=24;align=left;" vertex="1" parent="1">
          <mxGeometry x="280" y="1000" width="200" height="220" as="geometry" />
        </mxCell>
        <mxCell id="7OhoZfPL1DW1Y8G--P-i-58" value="" style="rounded=0;whiteSpace=wrap;html=1;gradientColor=none;fontSize=24;align=left;" vertex="1" parent="1">
          <mxGeometry x="480" y="1000" width="200" height="220" as="geometry" />
        </mxCell>
        <mxCell id="7OhoZfPL1DW1Y8G--P-i-59" value="" style="endArrow=classic;startArrow=classic;html=1;" edge="1" parent="1">
          <mxGeometry width="50" height="50" relative="1" as="geometry">
            <mxPoint x="700" y="1000" as="sourcePoint" />
            <mxPoint x="700" y="1220" as="targetPoint" />
          </mxGeometry>
        </mxCell>
        <mxCell id="7OhoZfPL1DW1Y8G--P-i-60" value="" style="endArrow=classic;startArrow=classic;html=1;" edge="1" parent="1">
          <mxGeometry width="50" height="50" relative="1" as="geometry">
            <mxPoint x="280" y="980" as="sourcePoint" />
            <mxPoint x="480" y="980" as="targetPoint" />
          </mxGeometry>
        </mxCell>
        <mxCell id="7OhoZfPL1DW1Y8G--P-i-61" value="" style="endArrow=classic;startArrow=classic;html=1;" edge="1" parent="1">
          <mxGeometry width="50" height="50" relative="1" as="geometry">
            <mxPoint x="480" y="980" as="sourcePoint" />
            <mxPoint x="680" y="980" as="targetPoint" />
          </mxGeometry>
        </mxCell>
        <mxCell id="7OhoZfPL1DW1Y8G--P-i-62" value="110cm" style="text;html=1;strokeColor=none;fillColor=none;align=left;verticalAlign=middle;whiteSpace=wrap;rounded=0;fontSize=24;" vertex="1" parent="1">
          <mxGeometry x="720" y="1110" width="40" height="20" as="geometry" />
        </mxCell>
        <mxCell id="7OhoZfPL1DW1Y8G--P-i-63" value="100cm" style="text;html=1;strokeColor=none;fillColor=none;align=center;verticalAlign=middle;whiteSpace=wrap;rounded=0;fontSize=24;" vertex="1" parent="1">
          <mxGeometry x="360" y="950" width="40" height="20" as="geometry" />
        </mxCell>
        <mxCell id="7OhoZfPL1DW1Y8G--P-i-64" value="100cm" style="text;html=1;strokeColor=none;fillColor=none;align=center;verticalAlign=middle;whiteSpace=wrap;rounded=0;fontSize=24;" vertex="1" parent="1">
          <mxGeometry x="565" y="950" width="40" height="20" as="geometry" />
        </mxCell>
        <mxCell id="7OhoZfPL1DW1Y8G--P-i-65" value="正視圖" style="text;html=1;strokeColor=none;fillColor=none;align=center;verticalAlign=middle;whiteSpace=wrap;rounded=0;fontSize=24;" vertex="1" parent="1">
          <mxGeometry x="440" y="1230" width="80" height="20" as="geometry" />
        </mxCell>
        <mxCell id="7OhoZfPL1DW1Y8G--P-i-66" value="" style="rounded=0;whiteSpace=wrap;html=1;gradientColor=none;fontSize=24;align=left;" vertex="1" parent="1">
          <mxGeometry x="280" y="1360" width="400" height="160" as="geometry" />
        </mxCell>
        <mxCell id="7OhoZfPL1DW1Y8G--P-i-67" value="俯視圖" style="text;html=1;strokeColor=none;fillColor=none;align=center;verticalAlign=middle;whiteSpace=wrap;rounded=0;fontSize=24;" vertex="1" parent="1">
          <mxGeometry x="440" y="1530" width="80" height="20" as="geometry" />
        </mxCell>
        <mxCell id="7OhoZfPL1DW1Y8G--P-i-68" value="" style="endArrow=classic;startArrow=classic;html=1;" edge="1" parent="1">
          <mxGeometry width="50" height="50" relative="1" as="geometry">
            <mxPoint x="280" y="1340" as="sourcePoint" />
            <mxPoint x="680" y="1340" as="targetPoint" />
          </mxGeometry>
        </mxCell>
        <mxCell id="7OhoZfPL1DW1Y8G--P-i-69" value="" style="endArrow=classic;startArrow=classic;html=1;" edge="1" parent="1">
          <mxGeometry width="50" height="50" relative="1" as="geometry">
            <mxPoint x="700" y="1360" as="sourcePoint" />
            <mxPoint x="700" y="1520" as="targetPoint" />
          </mxGeometry>
        </mxCell>
        <mxCell id="7OhoZfPL1DW1Y8G--P-i-70" value="80cm" style="text;html=1;strokeColor=none;fillColor=none;align=left;verticalAlign=middle;whiteSpace=wrap;rounded=0;fontSize=24;" vertex="1" parent="1">
          <mxGeometry x="720" y="1430" width="40" height="20" as="geometry" />
        </mxCell>
        <mxCell id="7OhoZfPL1DW1Y8G--P-i-71" value="200cm" style="text;html=1;strokeColor=none;fillColor=none;align=center;verticalAlign=middle;whiteSpace=wrap;rounded=0;fontSize=24;" vertex="1" parent="1">
          <mxGeometry x="470" y="1310" width="40" height="20" as="geometry" />
        </mxCell>
      </root>
    </mxGraphModel>
  </diagram>
</mxfile>
